# xmcd
# Track frame offsets:
# 150
# 10502
# 20695
# 33122
# 43902
# 54440
# 65670
# 83120
# 101245
# 114342
# 139452
# 153225
# 165997
#
# Disc length: 2514 seconds
# Revision: 11
# Processed by: cddbd v1.5.2PL0 Copyright (c) Steve Scherf et al.
# Submitted via: VisiTrax 2.11.3.279 - For more info visit www.synapsa.com
#
DISCID=a109d00d
DTITLE=Johnny Cash - American Recordings
DYEAR=1994
DGENRE=Country
TTITLE0=Delia's Gone
TTITLE1=Let the Train Blow the Whistle
TTITLE2=The Beast in Me
TTITLE3=Drive On
TTITLE4=Why Me Lord?
TTITLE5=Thirteen
TTITLE6=Oh, Bury Me Not (Introduction: A Cowboy's Prayer)
TTITLE7=Bird on a Wire
TTITLE8=Tennessee Stud
TTITLE9=Down There by the Train
TTITLE10=Redemption
TTITLE11=Like a Soldier
TTITLE12=The Man Who Couldn't Cry
EXTD=
EXTT0=
EXTT1=
EXTT2=
EXTT3=
EXTT4=
EXTT5=
EXTT6=
EXTT7=
EXTT8=
EXTT9=
EXTT10=
EXTT11=
EXTT12=
PLAYORDER=
